/* XPM */
static const char * analog_circle_bottomright_input_xpm[] = {
"48 48 4 1",
" 	c None",
".	c #7F7F7F",
"+	c #FFFFFF",
"@	c #000000",
"                                                ",
"                                                ",
"                                                ",
"                                                ",
"                                                ",
"                                                ",
"                                                ",
"                                                ",
"                                                ",
"                                                ",
"                                                ",
"                                                ",
"                                                ",
"                                                ",
"                                                ",
"                                                ",
"                                                ",
"                                                ",
"                                                ",
"                                                ",
"                                                ",
"                                                ",
"                                                ",
"                                                ",
"                                                ",
"                                                ",
"                          ++...                 ",
"                          +++++..               ",
"                          .++++++...            ",
"                          .++++++++@..          ",
"                          .++++++++@++...       ",
"                           .++++++@@+++++..     ",
"                           .+++++@@++++++++...  ",
"                            .+++@@+++++++++++.  ",
"                            .++@@+++++++++++..  ",
"                            .@@@+++++++++++..   ",
"                             .+++++++++++++.    ",
"                             .++++++++++++..    ",
"                              .++++++++++..     ",
"                              .+++++++++..      ",
"                              .++++++++..       ",
"                               .++++++..        ",
"                               .+++++..         ",
"                                .++...          ",
"                                .+..            ",
"                                ...             ",
"                                                ",
"                                                "};
