/* XPM */
static const char * button_pageup_xpm[] = {
"22 22 4 1",
" 	c None",
".	c #7F7F7F",
"+	c #FFFFFF",
"@	c #000000",
"        ......        ",
"     ...++++++...     ",
"    .++++++++++++.    ",
"   .++++++++++++++.   ",
"  .+++++++@@+++++++.  ",
" .+++++++@@@@+++++++. ",
" .++++++@@@@@@++++++. ",
" .+++++@@@++@@@+++++. ",
".+++++@@@++++@@@+++++.",
".++++@@@++@@++@@@++++.",
".+++@@@++@@@@++@@@+++.",
".+++@@++@@@@@@++@@+++.",
".++++++@@@++@@@++++++.",
".+++++@@@++++@@@+++++.",
" .+++@@@++++++@@@+++. ",
" .++@@@++++++++@@@++. ",
" .++@@++++++++++@@++. ",
"  .++++++++++++++++.  ",
"   .++++++++++++++.   ",
"    .++++++++++++.    ",
"     ...++++++...     ",
"        ......        "};
