/* XPM */
static const char * button_enter_xpm[] = {
"22 22 4 1",
" 	c None",
".	c #7F7F7F",
"+	c #FFFFFF",
"@	c #000000",
"        ......        ",
"     ...++++++...     ",
"    .++++++++++++.    ",
"   .++++++++++++++.   ",
"  .++++++++++++++++.  ",
" .++++++++++++++++++. ",
" .++++++++++++++++++. ",
" .++++++++++++++++++. ",
".+@@@@@+++++++++@++++.",
".+@+++++++++++++@++++.",
".+@++++++@@@+++@@@+++.",
".+@@@@@++@++@+++@++++.",
".+@++++++@++@+++@++++.",
".+@++++++@++@+++@++++.",
" .@@@@@++@++@+++@@++. ",
" .++++++++++++++++++. ",
" .++++++++++++++++++. ",
"  .++++++++++++++++.  ",
"   .++++++++++++++.   ",
"    .++++++++++++.    ",
"     ...++++++...     ",
"        ......        "};
