/* XPM */
static const char * pad_dpad_topleft_input_xpm[] = {
"48 48 4 1",
" 	c None",
".	c #7F7F7F",
"+	c #FF0000",
"@	c #0000FF",
"                                                ",
"                                                ",
"                                                ",
"                                                ",
"                                                ",
"                                                ",
"                                                ",
"                                                ",
"                                                ",
"                                                ",
"                                                ",
"                                                ",
"                                                ",
"             .++++++++++                        ",
"             @.+++++++++                        ",
"             @@.++++++++                        ",
"             @@@.+++++++                        ",
"             @@@@.++++++                        ",
"             @@@@@.+++++                        ",
"             @@@@@@.++++                        ",
"             @@@@@@@.+++                        ",
"             @@@@@@@@...                        ",
"             @@@@@@@@.                          ",
"             @@@@@@@@.                          ",
"                                                ",
"                                                ",
"                                                ",
"                                                ",
"                                                ",
"                                                ",
"                                                ",
"                                                ",
"                                                ",
"                                                ",
"                                                ",
"                                                ",
"                                                ",
"                                                ",
"                                                ",
"                                                ",
"                                                ",
"                                                ",
"                                                ",
"                                                ",
"                                                ",
"                                                ",
"                                                ",
"                                                "};
