/* XPM */
static const char * pad_dpad_up_input_xpm[] = {
"48 48 3 1",
" 	c None",
".	c #7F7F7F",
"+	c #FF0000",
"              ....................              ",
"             .++++++++++++++++++++.             ",
"             .++++++++++++++++++++.             ",
"             .++++++++++++++++++++.             ",
"             .++++++++++++++++++++.             ",
"             .++++++++++++++++++++.             ",
"             .++++++++++++++++++++.             ",
"             .++++++++++++++++++++.             ",
"             .++++++++++++++++++++.             ",
"             .++++++++++++++++++++.             ",
"             .++++++++++++++++++++.             ",
"             .++++++++++++++++++++.             ",
"             .++++++++++++++++++++.             ",
"             .++++++++++++++++++++.             ",
"              .++++++++++++++++++.              ",
"               .++++++++++++++++.               ",
"                .++++++++++++++.                ",
"                 .++++++++++++.                 ",
"                  .++++++++++.                  ",
"                   .++++++++.                   ",
"                    .++++++.                    ",
"                     ......                     ",
"                                                ",
"                                                ",
"                                                ",
"                                                ",
"                                                ",
"                                                ",
"                                                ",
"                                                ",
"                                                ",
"                                                ",
"                                                ",
"                                                ",
"                                                ",
"                                                ",
"                                                ",
"                                                ",
"                                                ",
"                                                ",
"                                                ",
"                                                ",
"                                                ",
"                                                ",
"                                                ",
"                                                ",
"                                                ",
"                                                "};
