/* XPM */
static const char * pad_font_mono_xpm[] = {
"762 8 2 1",
".	c #FFFFFF",
"+	c #000000",
"........................................................................................................................................................................................................+....+.+...+.+....+...++..+..+++....+.....+.....+........................................+++....+....+++...+++....+...+++++..+++..+++++..+++...+++.................+........+......+++...++++..+++..++++...++++.++++..+++++.+++++..++++.+...+..+++...+++..+...+.+.....+...+.+...+..+++..++++...+++...+++...+++..+++++.+...+.+...+.+.+.+.+...+.+...+.+++++..+++.........+++................+..........+..............+..........++........+.................+.....++...............................................+..........................................+....+....+..........",
"................................................................................................+.........+.......................................+.....+.....+.....+.................+...+++++.........+....+.+..+++++..++++.++.+...+.+....+....+.......+...+.+....+.........................+.+...+..++...+...+.+...+..++...+.....+...+.....+.+...+.+...+...............+..........+....+...+.+...+.+...+.+...+.+......+..+.+.....+.....+.....+...+...+.....+...+..+..+.....++.++.++..+.+...+.+...+.+...+.+...+.+...+...+...+...+.+...+.+.+.+.+...+.+...+.....+..+....+........+....+............+.........+..............+.........+..........+......+......+...+......+...............................................+.........................................+.....+.....+.........",
"................................................................................................+++.....+++......................................+++....+......+...+..................+....+++..........+..........+.+..+.+......+...++..........+.......+....+.....+........................+..+.+.+.+.+.......+.....+.+.+...+.....+.........+.+...+.+...+...+......+...+....+++++...+.......+.+.+++.+...+.+...+.+......+..+.+.....+.....+.....+...+...+.....+...+.+...+.....+.+.+.++..+.+...+.+...+.+...+.+...+.+.......+...+...+.+...+.+.+.+..+.+...+.+.....+...+.....+.......+...+.+...............+++...+......+++.....+...++....+++...+++..+.................+..+...+...++.+...+++....++...+++....+++..+.++...+++..+++...+..+..+..+.+.+.+.+...+..+..+..++++...+.....+.....+....++.+.",
"................................................................................................+++++.+++++.....................................+.+.+.+.+.+.+++++.+++++..............+++...+++..........+..........+.+..+++++...+....+...........+.......+..+++++.+++++.......+++++.........+...+...+...+......+....++..+.+...++++..++++.....+...+++...++++.............+..............+.....+..+.+.+.+++++.++++..+......+..+.+++++.+++++.+.+++.+++++...+.....+...++....+.....+...+.+.+.+.+...+.++++..+...+.++++...+++....+...+...+..+.+..+.+.+...+.....+.....+....+......+......+..+...+.................+..+++...+......+++..+..+...+....+..+..+++....+......+...+.+....+...+.+.+..+..+..+..+..+..+..+..+..++....+......+....+..+..+..+.+.+.+..+.+...+..+.....+..+......+......+..+.++..",
"................................................................................................+++.....+++.......................................+....+++.....+...+.................+++....+...........+..........+.+....+.+..+....+.+.+........+.......+....+.....+......................+....+...+...+.....+.......+.+++++.....+.+...+....+..+...+.....+..............+....+++++...+.....+...+.++..+...+.+...+.+......+..+.+.....+.....+...+.+...+...+.....+...+.+...+.....+...+.+..++.+...+.+.....+.+.+.+...+.....+...+...+...+..+.+...+.+...+.+....+....+.....+.......+.....+......................+++..+..+..+.....+..+..+++....+....+..+..+..+...+......+...++.....+...+.+.+..+..+..+..+..+..+..+..+..+.....++++...+....+..+..+..+.+.+.+...+.....+++...++....+.....+.....+.........",
"................................................................................................+.........+.......................................+.....+.....+.....+...............+++++...+.....................+++++.++++...+.++.+..+.........+.......+...+.+....+.....................+.....+...+...+....+....+...+...+...+...+.+...+...+...+...+.+...+...............+..........+..........+.....+...+.+...+.+......+..+.+.....+.....+...+.+...+...+...+.+...+..+..+.....+...+.+..++.+...+.+.....+..+..+...+.+...+...+...+...+..+.+...+.+..+...+...+...+......+........+....+.....................+..+..+..+..+.....+..+..+......+.....+++..+..+...+......+...+.+....+...+.+.+..+..+..+..+..+++....+++..+........+...+....+..+...++..+.+.+..+.+......+..+......+.....+.....+.........",
"........................................................................................................................................................................................................+..........+.+....+...+..++.+++.+.........+.....+..................+..........+..........+++..+++++.+++++..+++....+....+++...+++....+....+++...+++....+......+.....+........+.......+....++++.+...+.++++...++++.++++..+++++.+......+++..+...+..+++..+++...+...+.+++++.+...+.+...+..+++..+......++.+.+...+..+++....+....+++....+....+.+..+...+...+...+++++..+++.........+++........+++++.........+++..+++....+++...+++...+++...+.......+..+..+...+......+...+..+..+++..+.+.+..+..+...++...+........+..+.....+++....++....+++...++...+.+..+...+.....+..++++....+....+....+..........",
"..........................................................................................................................................................................................................................................................................+.........................................................................................+......................................................................................................................................................................................................................................................................+++...............++..................................+........+............................................+++................................"};
