/* XPM */
static const char * pad_dpad_bottomright_input_xpm[] = {
"48 48 4 1",
" 	c None",
".	c #7F7F7F",
"+	c #FFFF00",
"@	c #00FF00",
"                                                ",
"                                                ",
"                                                ",
"                                                ",
"                                                ",
"                                                ",
"                                                ",
"                                                ",
"                                                ",
"                                                ",
"                                                ",
"                                                ",
"                                                ",
"                                                ",
"                                                ",
"                                                ",
"                                                ",
"                                                ",
"                                                ",
"                                                ",
"                                                ",
"                                                ",
"                                                ",
"                                                ",
"                          .++++++++             ",
"                          .++++++++             ",
"                        ...++++++++             ",
"                        @@@.+++++++             ",
"                        @@@@.++++++             ",
"                        @@@@@.+++++             ",
"                        @@@@@@.++++             ",
"                        @@@@@@@.+++             ",
"                        @@@@@@@@.++             ",
"                        @@@@@@@@@.+             ",
"                        @@@@@@@@@@.             ",
"                                                ",
"                                                ",
"                                                ",
"                                                ",
"                                                ",
"                                                ",
"                                                ",
"                                                ",
"                                                ",
"                                                ",
"                                                ",
"                                                ",
"                                                "};
