/* XPM */
static const char * pad_thumb_buttons_xpm[] = {
"48 48 7 1",
" 	c None",
".	c #7F7F7F",
"+	c #FF0000",
"@	c #000000",
"#	c #0000FF",
"$	c #FFFF00",
"%	c #00FF00",
"                   @@......@@                   ",
"                @@...++++++...@@                ",
"             @@@@.++++++++++++.@@@@             ",
"            @@@@.++++++++++++++.@@@@            ",
"          @@@@@.++++++++++++++++.@@@@@          ",
"         @@@@@.++++++++++++++++++.@@@@@         ",
"        @@@@@@.++++++++++++++++++.@@@@@@        ",
"       @@@@@@@.++++++++++++++++++.@@@@@@@       ",
"      @@@@@@@.++++++++++++++++++++.@@@@@@@      ",
"     @@@@@@@@.++++++++++++++++++++.@@@@@@@@     ",
"    @@@@@@@@@.++++++++++++++++++++.@@@@@@@@@    ",
"    @@@@@@@@@.++++++++++++++++++++.@@@@@@@@@    ",
"   @@@@@@@@@@.++++++++++++++++++++.@@@@@@@@@@   ",
"  @@@@@@......++++++++++++++++++++......@@@@@@  ",
"  @@@...######.++++++++++++++++++.$$$$$$...@@@  ",
"  @@.##########.++++++++++++++++.$$$$$$$$$$.@@  ",
" @@.############.++++++++++++++.$$$$$$$$$$$$.@@ ",
" @.##############.++++++++++++.$$$$$$$$$$$$$$.@ ",
" .################.++++++++++.$$$$$$$$$$$$$$$$. ",
"@.#################.++++++++.$$$$$$$$$$$$$$$$$.@",
"@.##################.++++++.$$$$$$$$$$$$$$$$$$.@",
".####################......$$$$$$$$$$$$$$$$$$$$.",
".####################.@@@@.$$$$$$$$$$$$$$$$$$$$.",
".####################.@@@@.$$$$$$$$$$$$$$$$$$$$.",
".####################.@@@@.$$$$$$$$$$$$$$$$$$$$.",
".####################.@@@@.$$$$$$$$$$$$$$$$$$$$.",
".####################......$$$$$$$$$$$$$$$$$$$$.",
"@.##################.%%%%%%.$$$$$$$$$$$$$$$$$$.@",
"@.#################.%%%%%%%%.$$$$$$$$$$$$$$$$$.@",
" .################.%%%%%%%%%%.$$$$$$$$$$$$$$$$. ",
" @.##############.%%%%%%%%%%%%.$$$$$$$$$$$$$$.@ ",
" @@.############.%%%%%%%%%%%%%%.$$$$$$$$$$$$.@@ ",
"  @@.##########.%%%%%%%%%%%%%%%%.$$$$$$$$$$.@@  ",
"  @@@...######.%%%%%%%%%%%%%%%%%%.$$$$$$...@@@  ",
"  @@@@@@......%%%%%%%%%%%%%%%%%%%%......@@@@@@  ",
"   @@@@@@@@@@.%%%%%%%%%%%%%%%%%%%%.@@@@@@@@@@   ",
"    @@@@@@@@@.%%%%%%%%%%%%%%%%%%%%.@@@@@@@@@    ",
"    @@@@@@@@@.%%%%%%%%%%%%%%%%%%%%.@@@@@@@@@    ",
"     @@@@@@@@.%%%%%%%%%%%%%%%%%%%%.@@@@@@@@     ",
"      @@@@@@@.%%%%%%%%%%%%%%%%%%%%.@@@@@@@      ",
"       @@@@@@@.%%%%%%%%%%%%%%%%%%.@@@@@@@       ",
"        @@@@@@.%%%%%%%%%%%%%%%%%%.@@@@@@        ",
"         @@@@@.%%%%%%%%%%%%%%%%%%.@@@@@         ",
"          @@@@@.%%%%%%%%%%%%%%%%.@@@@@          ",
"            @@@@.%%%%%%%%%%%%%%.@@@@            ",
"             @@@@.%%%%%%%%%%%%.@@@@             ",
"                @@...%%%%%%...@@                ",
"                   @@......@@                   "};
