/* XPM */
static const char * pad_dpad_bottomleft_input_xpm[] = {
"48 48 4 1",
" 	c None",
".	c #0000FF",
"+	c #7F7F7F",
"@	c #00FF00",
"                                                ",
"                                                ",
"                                                ",
"                                                ",
"                                                ",
"                                                ",
"                                                ",
"                                                ",
"                                                ",
"                                                ",
"                                                ",
"                                                ",
"                                                ",
"                                                ",
"                                                ",
"                                                ",
"                                                ",
"                                                ",
"                                                ",
"                                                ",
"                                                ",
"                                                ",
"                                                ",
"                                                ",
"             ........+                          ",
"             ........+                          ",
"             ........+++                        ",
"             .......+@@@                        ",
"             ......+@@@@                        ",
"             .....+@@@@@                        ",
"             ....+@@@@@@                        ",
"             ...+@@@@@@@                        ",
"             ..+@@@@@@@@                        ",
"             .+@@@@@@@@@                        ",
"             +@@@@@@@@@@                        ",
"                                                ",
"                                                ",
"                                                ",
"                                                ",
"                                                ",
"                                                ",
"                                                ",
"                                                ",
"                                                ",
"                                                ",
"                                                ",
"                                                ",
"                                                "};
