/* XPM */
static const char * pad_dpad_topright_input_xpm[] = {
"48 48 4 1",
" 	c None",
".	c #FF0000",
"+	c #7F7F7F",
"@	c #FFFF00",
"                                                ",
"                                                ",
"                                                ",
"                                                ",
"                                                ",
"                                                ",
"                                                ",
"                                                ",
"                                                ",
"                                                ",
"                                                ",
"                                                ",
"                                                ",
"                        ..........+             ",
"                        .........+@             ",
"                        ........+@@             ",
"                        .......+@@@             ",
"                        ......+@@@@             ",
"                        .....+@@@@@             ",
"                        ....+@@@@@@             ",
"                        ...+@@@@@@@             ",
"                        +++@@@@@@@@             ",
"                          +@@@@@@@@             ",
"                          +@@@@@@@@             ",
"                                                ",
"                                                ",
"                                                ",
"                                                ",
"                                                ",
"                                                ",
"                                                ",
"                                                ",
"                                                ",
"                                                ",
"                                                ",
"                                                ",
"                                                ",
"                                                ",
"                                                ",
"                                                ",
"                                                ",
"                                                ",
"                                                ",
"                                                ",
"                                                ",
"                                                ",
"                                                ",
"                                                "};
