/* XPM */
static const char * pad_dpad_down_input_xpm[] = {
"48 48 3 1",
" 	c None",
".	c #7F7F7F",
"+	c #00FF00",
"                                                ",
"                                                ",
"                                                ",
"                                                ",
"                                                ",
"                                                ",
"                                                ",
"                                                ",
"                                                ",
"                                                ",
"                                                ",
"                                                ",
"                                                ",
"                                                ",
"                                                ",
"                                                ",
"                                                ",
"                                                ",
"                                                ",
"                                                ",
"                                                ",
"                                                ",
"                                                ",
"                                                ",
"                                                ",
"                                                ",
"                                                ",
"                                                ",
"                                                ",
"                                                ",
"                                                ",
"                                                ",
"                                                ",
"                                                ",
"                                                ",
"             .++++++++++++++++++++.             ",
"             .++++++++++++++++++++.             ",
"             .++++++++++++++++++++.             ",
"             .++++++++++++++++++++.             ",
"             .++++++++++++++++++++.             ",
"             .++++++++++++++++++++.             ",
"             .++++++++++++++++++++.             ",
"             .++++++++++++++++++++.             ",
"             .++++++++++++++++++++.             ",
"             .++++++++++++++++++++.             ",
"             .++++++++++++++++++++.             ",
"             .++++++++++++++++++++.             ",
"              ....................              "};
