/* XPM */
static const char * pad_dpad_xpm[] = {
"48 48 4 1",
" 	c None",
".	c #000000",
"+	c #7F7F7F",
"@	c #FFFFFF",
"              ++++++++++++++++++++              ",
"             +@@@@@@@@@@@@@@@@@@@@+             ",
"             +@@@@@@@@@@@@@@@@@@@@+             ",
"             +@@@@@@@@@@@@@@@@@@@@+             ",
"             +@@@@@@@@@@@@@@@@@@@@+             ",
"             +@@@@@@@@@@@@@@@@@@@@+             ",
"             +@@@@@@@@@@@@@@@@@@@@+             ",
"             +@@@@@@@@@@@@@@@@@@@@+             ",
"             +@@@@@@@@@@@@@@@@@@@@+             ",
"             +@@@@@@@@@@@@@@@@@@@@+             ",
"             +@@@@@@@@@@@@@@@@@@@@+             ",
"             +@@@@@@@@@@@@@@@@@@@@+             ",
"             +@@@@@@@@@@@@@@@@@@@@+             ",
" +++++++++++++@@@@@@@@@@@@@@@@@@@@+++++++++++++ ",
"+@@@@@@@@@@@@@+@@@@@@@@@@@@@@@@@@+@@@@@@@@@@@@@+",
"+@@@@@@@@@@@@@@+@@@@@@@@@@@@@@@@+@@@@@@@@@@@@@@+",
"+@@@@@@@@@@@@@@@+@@@@@@@@@@@@@@+@@@@@@@@@@@@@@@+",
"+@@@@@@@@@@@@@@@@+@@@@@@@@@@@@+@@@@@@@@@@@@@@@@+",
"+@@@@@@@@@@@@@@@@@+@@@@@@@@@@+@@@@@@@@@@@@@@@@@+",
"+@@@@@@@@@@@@@@@@@@+@@@@@@@@+@@@@@@@@@@@@@@@@@@+",
"+@@@@@@@@@@@@@@@@@@@+@@@@@@+@@@@@@@@@@@@@@@@@@@+",
"+@@@@@@@@@@@@@@@@@@@@++++++@@@@@@@@@@@@@@@@@@@@+",
"+@@@@@@@@@@@@@@@@@@@@+....+@@@@@@@@@@@@@@@@@@@@+",
"+@@@@@@@@@@@@@@@@@@@@+....+@@@@@@@@@@@@@@@@@@@@+",
"+@@@@@@@@@@@@@@@@@@@@+....+@@@@@@@@@@@@@@@@@@@@+",
"+@@@@@@@@@@@@@@@@@@@@+....+@@@@@@@@@@@@@@@@@@@@+",
"+@@@@@@@@@@@@@@@@@@@@++++++@@@@@@@@@@@@@@@@@@@@+",
"+@@@@@@@@@@@@@@@@@@@+@@@@@@+@@@@@@@@@@@@@@@@@@@+",
"+@@@@@@@@@@@@@@@@@@+@@@@@@@@+@@@@@@@@@@@@@@@@@@+",
"+@@@@@@@@@@@@@@@@@+@@@@@@@@@@+@@@@@@@@@@@@@@@@@+",
"+@@@@@@@@@@@@@@@@+@@@@@@@@@@@@+@@@@@@@@@@@@@@@@+",
"+@@@@@@@@@@@@@@@+@@@@@@@@@@@@@@+@@@@@@@@@@@@@@@+",
"+@@@@@@@@@@@@@@+@@@@@@@@@@@@@@@@+@@@@@@@@@@@@@@+",
"+@@@@@@@@@@@@@+@@@@@@@@@@@@@@@@@@+@@@@@@@@@@@@@+",
" +++++++++++++@@@@@@@@@@@@@@@@@@@@+++++++++++++ ",
"             +@@@@@@@@@@@@@@@@@@@@+             ",
"             +@@@@@@@@@@@@@@@@@@@@+             ",
"             +@@@@@@@@@@@@@@@@@@@@+             ",
"             +@@@@@@@@@@@@@@@@@@@@+             ",
"             +@@@@@@@@@@@@@@@@@@@@+             ",
"             +@@@@@@@@@@@@@@@@@@@@+             ",
"             +@@@@@@@@@@@@@@@@@@@@+             ",
"             +@@@@@@@@@@@@@@@@@@@@+             ",
"             +@@@@@@@@@@@@@@@@@@@@+             ",
"             +@@@@@@@@@@@@@@@@@@@@+             ",
"             +@@@@@@@@@@@@@@@@@@@@+             ",
"             +@@@@@@@@@@@@@@@@@@@@+             ",
"              ++++++++++++++++++++              "};
