/* XPM */
static char * pad_thumb_buttons_mono_xpm[] = {
"50 50 2 1",
" 	c #FFFFFF",
".	c #000000",
"                    ..      ..                    ",
"                ....          ....                ",
"              ....              ....              ",
"            .....                .....            ",
"           ......                ......           ",
"         .......                  .......         ",
"        ........                  ........        ",
"       ........                    ........       ",
"      .........                    .........      ",
"     ..........                    ..........     ",
"     ..........                    ..........     ",
"    ...........                    ...........    ",
"   ............                    ............   ",
"   .............                  .............   ",
"  ..............                  ..............  ",
"  .....      ....                ....      .....  ",
" ....          ..                ..          .... ",
" ..              .              .              .. ",
" .                ..          ..                . ",
" .                ....      ....                . ",
".                  ............                  .",
".                  ............                  .",
"                    ..........                    ",
"                    ..........                    ",
"                    ..........                    ",
"                    ..........                    ",
"                    ..........                    ",
"                    ..........                    ",
".                  ............                  .",
".                  ............                  .",
" .                ....      ....                . ",
" .                ..          ..                . ",
" ..              .              .              .. ",
" ....          ..                ..          .... ",
"  .....      ....                ....      .....  ",
"  ..............                  ..............  ",
"   .............                  .............   ",
"   ............                    ............   ",
"    ...........                    ...........    ",
"     ..........                    ..........     ",
"     ..........                    ..........     ",
"      .........                    .........      ",
"       ........                    ........       ",
"        ........                  ........        ",
"         .......                  .......         ",
"           ......                ......           ",
"            .....                .....            ",
"              ....              ....              ",
"                ....          ....                ",
"                    ..      ..                    "};
